<svg width="276" height="20" viewBox="0 0 276 20" fill="none" xmlns="http://www.w3.org/2000/svg">
<path d="M0.000115983 3.98208C0.000115983 2.42008 1.32012 1.03408 2.48612 0.506083C2.55212 0.484084 2.59612 0.462084 2.66212 0.462084C2.77212 0.462084 2.86012 0.506083 2.92612 0.616083L3.43212 1.36408C3.47612 1.43008 3.49812 1.49608 3.49812 1.54008C3.49812 1.65008 3.43212 1.71608 3.30012 1.78208C2.92612 1.95808 2.28812 2.48608 2.04612 2.81608C2.72812 2.90408 3.32212 3.47608 3.32212 4.26808C3.32212 5.23608 2.59612 5.85208 1.69412 5.85208C0.572116 5.85208 0.000115983 5.12608 0.000115983 3.98208ZM4.18012 3.98208C4.18012 2.42008 5.50012 1.03408 6.66612 0.506083C6.73212 0.484084 6.77612 0.462084 6.84212 0.462084C6.95212 0.462084 7.04012 0.506083 7.10612 0.616083L7.61212 1.36408C7.65612 1.43008 7.67812 1.49608 7.67812 1.54008C7.67812 1.65008 7.61212 1.71608 7.48012 1.78208C7.10612 1.95808 6.46812 2.48608 6.22612 2.81608C6.90812 2.90408 7.50212 3.47608 7.50212 4.26808C7.50212 5.23608 6.77612 5.85208 5.87412 5.85208C4.75212 5.85208 4.18012 5.12608 4.18012 3.98208ZM10.9824 5.94008C10.6524 5.94008 10.4764 5.76408 10.4764 5.43408V4.15808C10.4764 3.82808 10.6524 3.65208 10.9824 3.65208L14.1504 3.74008V2.24408C14.1504 1.91408 14.3264 1.73808 14.6564 1.73808H16.4604C16.7904 1.73808 16.9664 1.91408 16.9664 2.24408V3.80608L20.1564 3.87208C20.4864 3.87208 20.6624 4.04808 20.6624 4.37808V5.65408C20.6624 5.98408 20.4864 6.16008 20.1564 6.16008L10.9824 5.94008ZM24.5784 7.23808H26.5584C26.8884 7.23808 27.0644 7.41408 27.0644 7.74408V9.02008C27.0644 9.35008 26.8884 9.52608 26.5584 9.52608H24.5784V13.2001C24.5784 13.5301 24.4024 13.7061 24.0724 13.7061H22.2684C21.9384 13.7061 21.7624 13.5301 21.7624 13.2001V4.02608C21.7624 3.69608 21.9384 3.52008 22.2684 3.52008H24.0724C24.4024 3.52008 24.5784 3.69608 24.5784 4.02608V7.23808ZM11.3344 10.3401C11.3344 8.05208 13.1164 6.60008 15.5804 6.60008C18.0444 6.60008 19.8264 8.05208 19.8264 10.3401C19.8264 12.6281 18.0444 14.0801 15.5804 14.0801C13.1164 14.0801 11.3344 12.6281 11.3344 10.3401ZM13.9744 10.3401C13.9744 11.2861 14.6784 11.8801 15.5804 11.8801C16.4824 11.8801 17.1864 11.2861 17.1864 10.3401C17.1864 9.39408 16.4824 8.80008 15.5804 8.80008C14.6784 8.80008 13.9744 9.39408 13.9744 10.3401ZM30.685 6.93008C30.663 6.93008 30.663 6.93008 30.641 6.93008C30.333 6.93008 30.179 6.75408 30.179 6.42408V0.748083C30.179 0.418083 30.355 0.242083 30.685 0.242083H32.489C32.819 0.242083 32.995 0.418083 32.995 0.748083V4.53208L40.563 4.24608C40.585 4.24608 40.585 4.24608 40.607 4.24608C40.915 4.24608 41.069 4.42208 41.069 4.75208V6.02808C41.069 6.40208 40.915 6.51208 40.563 6.53408L30.685 6.93008ZM29.563 10.3401C29.541 10.3401 29.541 10.3401 29.519 10.3401C29.211 10.3401 29.057 10.1641 29.057 9.83408V8.55808C29.057 8.18408 29.211 8.07408 29.563 8.05208L41.487 7.61208C41.509 7.61208 41.509 7.61208 41.531 7.61208C41.839 7.61208 41.993 7.78808 41.993 8.11808V9.39408C41.993 9.76808 41.839 9.87808 41.487 9.90008L29.563 10.3401ZM39.925 16.1261C39.903 16.4781 39.793 16.6321 39.419 16.6321H34.183L34.227 17.7101L39.485 17.5561C39.815 17.5561 39.991 17.7321 39.991 18.0621V19.2501C39.991 19.5801 39.815 19.7561 39.485 19.7561L32.005 19.9761C31.631 19.9761 31.521 19.8221 31.499 19.4701L31.279 14.9381C31.279 14.9161 31.279 14.9161 31.279 14.8941C31.279 14.5861 31.455 14.4321 31.785 14.4321H37.307L37.329 13.5081H31.301C30.971 13.5081 30.795 13.3321 30.795 13.0021V11.8141C30.795 11.4841 30.971 11.3081 31.301 11.3081H39.749C40.079 11.3081 40.255 11.4621 40.255 11.7701C40.255 11.7921 40.255 11.7921 40.255 11.8141L39.925 16.1261ZM46.4016 3.65208C46.4016 1.54008 48.1616 8.32081e-05 50.7136 8.32081e-05C53.2656 8.32081e-05 55.0256 1.54008 55.0256 3.65208C55.0256 5.76408 53.2656 7.30408 50.7136 7.30408C48.1616 7.30408 46.4016 5.76408 46.4016 3.65208ZM49.2176 3.65208C49.2176 4.51008 49.8336 5.01608 50.7136 5.01608C51.5936 5.01608 52.2096 4.51008 52.2096 3.65208C52.2096 2.79408 51.5936 2.28808 50.7136 2.28808C49.8336 2.28808 49.2176 2.79408 49.2176 3.65208ZM44.7516 10.5601C44.7296 10.5601 44.7296 10.5601 44.7076 10.5601C44.3996 10.5601 44.2456 10.3841 44.2456 10.0541V8.77808C44.2456 8.40408 44.3996 8.29408 44.7516 8.27208L56.6756 7.83208C56.6976 7.83208 56.6976 7.83208 56.7196 7.83208C57.0276 7.83208 57.1816 8.00808 57.1816 8.33808V9.61408C57.1816 9.98808 57.0276 10.0981 56.6756 10.1201L44.7516 10.5601ZM55.1136 16.1261C55.0916 16.4781 54.9816 16.6321 54.6076 16.6321H49.3716L49.4156 17.7101L54.6736 17.5561C55.0036 17.5561 55.1796 17.7321 55.1796 18.0621V19.2501C55.1796 19.5801 55.0036 19.7561 54.6736 19.7561L47.1936 19.9761C46.8196 19.9761 46.7096 19.8221 46.6876 19.4701L46.4676 14.9381C46.4676 14.9161 46.4676 14.9161 46.4676 14.8941C46.4676 14.5861 46.6436 14.4321 46.9736 14.4321H52.4956L52.5176 13.5081H46.4896C46.1596 13.5081 45.9836 13.3321 45.9836 13.0021V11.8141C45.9836 11.4841 46.1596 11.3081 46.4896 11.3081H54.9376C55.2676 11.3081 55.4436 11.4621 55.4436 11.7701C55.4436 11.7921 55.4436 11.7921 55.4436 11.8141L55.1136 16.1261ZM73.3265 5.03808L75.6365 9.48208C75.7245 9.63608 75.7685 9.74608 75.7685 9.83408C75.7685 9.92208 75.7465 10.0321 75.3945 10.1861L73.9645 10.7801C73.8325 10.8241 73.7225 10.8461 73.6345 10.8461C73.5465 10.8461 73.4585 10.8901 73.2605 10.4721L70.5325 5.06008L67.8045 10.4721C67.6065 10.8901 67.5185 10.8461 67.4305 10.8461C67.3425 10.8461 67.2325 10.8241 67.1005 10.7801L65.6705 10.1861C65.3185 10.0321 65.2965 9.92208 65.2965 9.83408C65.2965 9.74608 65.3405 9.63608 65.4285 9.48208L67.8045 4.88408L66.0005 4.84008C65.6705 4.84008 65.4945 4.66408 65.4945 4.33408V3.05808C65.4945 2.72808 65.6705 2.55208 66.0005 2.55208L69.1245 2.64008V1.25408C69.1245 0.924083 69.3005 0.748083 69.6305 0.748083H71.4345C71.7645 0.748083 71.9405 0.924083 71.9405 1.25408V2.72808L75.0645 2.79408C75.3945 2.79408 75.5705 2.97008 75.5705 3.30008V4.57608C75.5705 4.90608 75.3945 5.08208 75.0645 5.08208L73.3265 5.03808ZM79.7065 11.0881C79.7065 11.4181 79.5305 11.5941 79.2005 11.5941H77.3965C77.0665 11.5941 76.8905 11.4181 76.8905 11.0881V2.70608C76.8905 2.37608 77.0665 2.20008 77.3965 2.20008H79.2005C79.5305 2.20008 79.7065 2.37608 79.7065 2.70608V11.0881ZM70.8625 17.8201C70.8405 17.8201 70.8405 17.8201 70.8185 17.8201C70.5325 17.8201 70.3785 17.6441 70.3565 17.3141L70.1365 12.4961C70.1365 12.4741 70.1365 12.4741 70.1365 12.4521C70.1365 12.1441 70.3125 11.9901 70.6425 11.9901H72.4465C72.8205 11.9901 72.9305 12.1441 72.9525 12.4961L73.0625 15.4221L78.7165 15.1361C78.7385 15.1361 78.7385 15.1361 78.7605 15.1361C79.0685 15.1361 79.2225 15.3121 79.2225 15.6421V16.9181C79.2225 17.2921 79.0685 17.4021 78.7165 17.4241L70.8625 17.8201ZM90.4036 11.4401V15.9281C90.4036 16.2581 90.2276 16.4341 89.8976 16.4341H88.0936C87.7636 16.4341 87.5876 16.2581 87.5876 15.9281V11.5281L83.0556 11.6821C83.0336 11.6821 83.0336 11.6821 83.0116 11.6821C82.7036 11.6821 82.5496 11.5061 82.5496 11.1761V9.90008C82.5496 9.52608 82.7036 9.41608 83.0556 9.39408L91.1296 9.13008L91.5696 3.76208L83.9576 3.60808C83.6276 3.60808 83.4516 3.43208 83.4516 3.10208V1.82608C83.4516 1.49608 83.6276 1.32008 83.9576 1.32008L94.0556 1.54008C94.3856 1.54008 94.5616 1.69408 94.5616 2.00208C94.5616 2.02408 94.5616 2.02408 94.5616 2.04608L93.9676 9.04208L94.9796 8.99808C95.0016 8.99808 95.0016 8.99808 95.0236 8.99808C95.3316 8.99808 95.4856 9.17408 95.4856 9.50408V10.7801C95.4856 11.1541 95.3316 11.2641 94.9796 11.2861L90.4036 11.4401ZM105.416 6.35808L107.968 12.3861C108.034 12.5181 108.056 12.6281 108.056 12.7161C108.056 12.7821 108.056 12.9141 107.77 13.0241L106.164 13.6401C106.054 13.6841 105.966 13.7061 105.9 13.7061C105.812 13.7061 105.702 13.7281 105.548 13.3761L102.886 6.97408L100.224 13.3761C100.07 13.7281 99.9602 13.7061 99.8722 13.7061C99.8062 13.7061 99.7182 13.6841 99.6082 13.6401L98.0022 13.0241C97.7162 12.9141 97.7162 12.7821 97.7162 12.7161C97.7162 12.6281 97.7382 12.5181 97.8042 12.3861L100.422 6.22608L98.3542 6.16008C98.0242 6.16008 97.8482 5.98408 97.8482 5.65408V4.37808C97.8482 4.04808 98.0242 3.87208 98.3542 3.87208L101.478 3.96008V2.46408C101.478 2.13408 101.654 1.95808 101.984 1.95808H103.788C104.118 1.95808 104.294 2.13408 104.294 2.46408V4.04808L107.418 4.11408C107.748 4.11408 107.924 4.29008 107.924 4.62008V5.89608C107.924 6.22608 107.748 6.40208 107.418 6.40208L105.416 6.35808ZM112.72 13.2001C112.72 13.5301 112.544 13.7061 112.214 13.7061H110.41C110.08 13.7061 109.904 13.5301 109.904 13.2001V9.50408H107.836C107.506 9.50408 107.33 9.32808 107.33 8.99808V7.72208C107.33 7.39208 107.506 7.21608 107.836 7.21608H109.904V4.02608C109.904 3.69608 110.08 3.52008 110.41 3.52008H112.214C112.544 3.52008 112.72 3.69608 112.72 4.02608V13.2001ZM130.09 9.98808C130.09 10.3181 129.914 10.4941 129.584 10.4941H127.78C127.45 10.4941 127.274 10.3181 127.274 9.98808V6.09408H124.612L124.568 6.75408C124.546 7.08408 124.392 7.26008 124.062 7.26008H118.562V8.49208L124.656 8.16208C124.678 8.16208 124.678 8.16208 124.7 8.16208C125.008 8.16208 125.162 8.33808 125.162 8.66808V9.94408C125.162 10.3181 125.008 10.4281 124.656 10.4501L116.252 10.8901C116.23 10.8901 116.23 10.8901 116.208 10.8901C115.9 10.8901 115.746 10.7141 115.746 10.3841V5.47808C115.746 5.14808 115.922 4.97208 116.252 4.97208H122.016L122.104 4.00408L116.252 3.85008C115.922 3.85008 115.746 3.67408 115.746 3.34408V2.06808C115.746 1.73808 115.922 1.56208 116.252 1.56208L124.436 1.78208C124.766 1.78208 124.942 1.93608 124.942 2.24408C124.942 2.26608 124.942 2.26608 124.942 2.28808L124.81 3.80608H127.274V2.26608C127.274 1.93608 127.45 1.76008 127.78 1.76008H129.584C129.914 1.76008 130.09 1.93608 130.09 2.26608V9.98808ZM120.366 18.0401C120.036 18.0401 119.882 17.8641 119.86 17.5341L119.596 12.2541C119.596 12.2321 119.596 12.2321 119.596 12.2101C119.596 11.9021 119.772 11.7481 120.102 11.7481H128.55C128.88 11.7481 129.056 11.9021 129.056 12.2101C129.056 12.2321 129.056 12.2321 129.056 12.2541L128.792 17.3141C128.77 17.6441 128.616 17.8201 128.286 17.8201L120.366 18.0401ZM122.566 15.8181L126.086 15.7081L126.174 13.8601H122.478L122.566 15.8181ZM136.624 14.1901C136.624 16.0161 135.502 17.2921 134.204 17.8861C134.138 17.9081 134.094 17.9301 134.028 17.9301C133.918 17.9301 133.83 17.8861 133.764 17.7761L133.258 17.0281C133.214 16.9621 133.192 16.9181 133.192 16.8521C133.192 16.7421 133.258 16.6761 133.39 16.6101C133.764 16.4341 134.402 15.9061 134.644 15.5761C133.962 15.4881 133.368 14.9161 133.368 14.1241C133.368 13.1561 134.094 12.5401 134.996 12.5401C135.876 12.5401 136.624 13.0461 136.624 14.1901ZM156.522 17.6001C156.5 17.9521 156.39 18.1061 156.016 18.1061H154.212C153.882 18.1061 153.706 17.9521 153.706 17.6441C153.706 17.6221 153.706 17.6221 153.706 17.6001L153.882 13.8821H147.392C147.062 13.8821 146.886 13.7061 146.886 13.3761V12.1001C146.886 11.7701 147.062 11.5941 147.392 11.5941H150.296V9.52608L145.764 9.68008C145.742 9.68008 145.742 9.68008 145.72 9.68008C145.412 9.68008 145.258 9.50408 145.258 9.17408V7.89808C145.258 7.52408 145.412 7.41408 145.764 7.39208L153.97 7.08408L154.278 3.12408L146.666 2.97008C146.336 2.97008 146.16 2.79408 146.16 2.46408V1.18808C146.16 0.858083 146.336 0.682084 146.666 0.682084L156.764 0.902083C157.094 0.902083 157.27 1.05608 157.27 1.36408C157.27 1.38608 157.27 1.38608 157.27 1.40808L156.808 6.99608L157.688 6.95208C157.71 6.95208 157.71 6.95208 157.732 6.95208C158.04 6.95208 158.194 7.12808 158.194 7.45808V8.73408C158.194 9.10808 158.04 9.21808 157.688 9.24008L153.112 9.41608V11.5941H156.28C156.61 11.5941 156.786 11.7481 156.786 12.0561C156.786 12.0781 156.786 12.0781 156.786 12.1001L156.522 17.6001ZM161.151 10.8901C161.129 10.8901 161.129 10.8901 161.107 10.8901C160.799 10.8901 160.645 10.7141 160.645 10.3841V2.50808C160.645 2.17808 160.821 2.00208 161.151 2.00208L169.555 2.22208C169.885 2.22208 170.061 2.37608 170.061 2.68408C170.061 2.70608 170.061 2.70608 170.061 2.72808L169.797 9.96608C169.775 10.3401 169.643 10.4501 169.291 10.4721L161.151 10.8901ZM174.769 11.0881C174.769 11.4181 174.593 11.5941 174.263 11.5941H172.459C172.129 11.5941 171.953 11.4181 171.953 11.0881V2.70608C171.953 2.37608 172.129 2.20008 172.459 2.20008H174.263C174.593 2.20008 174.769 2.37608 174.769 2.70608V11.0881ZM163.461 8.49208L167.091 8.31608L167.179 4.44408L163.461 4.35608V8.49208ZM165.925 17.8201C165.903 17.8201 165.903 17.8201 165.881 17.8201C165.595 17.8201 165.441 17.6441 165.419 17.3141L165.199 12.4961C165.199 12.4741 165.199 12.4741 165.199 12.4521C165.199 12.1441 165.375 11.9901 165.705 11.9901H167.509C167.883 11.9901 167.993 12.1441 168.015 12.4961L168.125 15.4221L173.779 15.1361C173.801 15.1361 173.801 15.1361 173.823 15.1361C174.131 15.1361 174.285 15.3121 174.285 15.6421V16.9181C174.285 17.2921 174.131 17.4021 173.779 17.4241L165.925 17.8201ZM179.768 3.65208C179.768 1.54008 181.528 8.32081e-05 184.08 8.32081e-05C186.632 8.32081e-05 188.392 1.54008 188.392 3.65208C188.392 5.76408 186.632 7.30408 184.08 7.30408C181.528 7.30408 179.768 5.76408 179.768 3.65208ZM182.584 3.65208C182.584 4.51008 183.2 5.01608 184.08 5.01608C184.96 5.01608 185.576 4.51008 185.576 3.65208C185.576 2.79408 184.96 2.28808 184.08 2.28808C183.2 2.28808 182.584 2.79408 182.584 3.65208ZM178.118 10.5601C178.096 10.5601 178.096 10.5601 178.074 10.5601C177.766 10.5601 177.612 10.3841 177.612 10.0541V8.77808C177.612 8.40408 177.766 8.29408 178.118 8.27208L190.042 7.83208C190.064 7.83208 190.064 7.83208 190.086 7.83208C190.394 7.83208 190.548 8.00808 190.548 8.33808V9.61408C190.548 9.98808 190.394 10.0981 190.042 10.1201L178.118 10.5601ZM188.48 16.1261C188.458 16.4781 188.348 16.6321 187.974 16.6321H182.738L182.782 17.7101L188.04 17.5561C188.37 17.5561 188.546 17.7321 188.546 18.0621V19.2501C188.546 19.5801 188.37 19.7561 188.04 19.7561L180.56 19.9761C180.186 19.9761 180.076 19.8221 180.054 19.4701L179.834 14.9381C179.834 14.9161 179.834 14.9161 179.834 14.8941C179.834 14.5861 180.01 14.4321 180.34 14.4321H185.862L185.884 13.5081H179.856C179.526 13.5081 179.35 13.3321 179.35 13.0021V11.8141C179.35 11.4841 179.526 11.3081 179.856 11.3081H188.304C188.634 11.3081 188.81 11.4621 188.81 11.7701C188.81 11.7921 188.81 11.7921 188.81 11.8141L188.48 16.1261ZM199.367 5.94008C199.037 5.94008 198.861 5.76408 198.861 5.43408V4.15808C198.861 3.82808 199.037 3.65208 199.367 3.65208L202.535 3.74008V2.24408C202.535 1.91408 202.711 1.73808 203.041 1.73808H204.845C205.175 1.73808 205.351 1.91408 205.351 2.24408V3.80608L208.541 3.87208C208.871 3.87208 209.047 4.04808 209.047 4.37808V5.65408C209.047 5.98408 208.871 6.16008 208.541 6.16008L199.367 5.94008ZM212.963 7.23808H214.943C215.273 7.23808 215.449 7.41408 215.449 7.74408V9.02008C215.449 9.35008 215.273 9.52608 214.943 9.52608H212.963V13.2001C212.963 13.5301 212.787 13.7061 212.457 13.7061H210.653C210.323 13.7061 210.147 13.5301 210.147 13.2001V4.02608C210.147 3.69608 210.323 3.52008 210.653 3.52008H212.457C212.787 3.52008 212.963 3.69608 212.963 4.02608V7.23808ZM199.719 10.3401C199.719 8.05208 201.501 6.60008 203.965 6.60008C206.429 6.60008 208.211 8.05208 208.211 10.3401C208.211 12.6281 206.429 14.0801 203.965 14.0801C201.501 14.0801 199.719 12.6281 199.719 10.3401ZM202.359 10.3401C202.359 11.2861 203.063 11.8801 203.965 11.8801C204.867 11.8801 205.571 11.2861 205.571 10.3401C205.571 9.39408 204.867 8.80008 203.965 8.80008C203.063 8.80008 202.359 9.39408 202.359 10.3401ZM219.069 6.93008C219.047 6.93008 219.047 6.93008 219.025 6.93008C218.717 6.93008 218.563 6.75408 218.563 6.42408V0.748083C218.563 0.418083 218.739 0.242083 219.069 0.242083H220.873C221.203 0.242083 221.379 0.418083 221.379 0.748083V4.53208L228.947 4.24608C228.969 4.24608 228.969 4.24608 228.991 4.24608C229.299 4.24608 229.453 4.42208 229.453 4.75208V6.02808C229.453 6.40208 229.299 6.51208 228.947 6.53408L219.069 6.93008ZM217.947 10.3401C217.925 10.3401 217.925 10.3401 217.903 10.3401C217.595 10.3401 217.441 10.1641 217.441 9.83408V8.55808C217.441 8.18408 217.595 8.07408 217.947 8.05208L229.871 7.61208C229.893 7.61208 229.893 7.61208 229.915 7.61208C230.223 7.61208 230.377 7.78808 230.377 8.11808V9.39408C230.377 9.76808 230.223 9.87808 229.871 9.90008L217.947 10.3401ZM228.309 16.1261C228.287 16.4781 228.177 16.6321 227.803 16.6321H222.567L222.611 17.7101L227.869 17.5561C228.199 17.5561 228.375 17.7321 228.375 18.0621V19.2501C228.375 19.5801 228.199 19.7561 227.869 19.7561L220.389 19.9761C220.015 19.9761 219.905 19.8221 219.883 19.4701L219.663 14.9381C219.663 14.9161 219.663 14.9161 219.663 14.8941C219.663 14.5861 219.839 14.4321 220.169 14.4321H225.691L225.713 13.5081H219.685C219.355 13.5081 219.179 13.3321 219.179 13.0021V11.8141C219.179 11.4841 219.355 11.3081 219.685 11.3081H228.133C228.463 11.3081 228.639 11.4621 228.639 11.7701C228.639 11.7921 228.639 11.7921 228.639 11.8141L228.309 16.1261ZM240.308 6.35808L242.86 12.3861C242.926 12.5181 242.948 12.6281 242.948 12.7161C242.948 12.7821 242.948 12.9141 242.662 13.0241L241.056 13.6401C240.946 13.6841 240.858 13.7061 240.792 13.7061C240.704 13.7061 240.594 13.7281 240.44 13.3761L237.778 6.97408L235.116 13.3761C234.962 13.7281 234.852 13.7061 234.764 13.7061C234.698 13.7061 234.61 13.6841 234.5 13.6401L232.894 13.0241C232.608 12.9141 232.608 12.7821 232.608 12.7161C232.608 12.6281 232.63 12.5181 232.696 12.3861L235.314 6.22608L233.246 6.16008C232.916 6.16008 232.74 5.98408 232.74 5.65408V4.37808C232.74 4.04808 232.916 3.87208 233.246 3.87208L236.37 3.96008V2.46408C236.37 2.13408 236.546 1.95808 236.876 1.95808H238.68C239.01 1.95808 239.186 2.13408 239.186 2.46408V4.04808L242.31 4.11408C242.64 4.11408 242.816 4.29008 242.816 4.62008V5.89608C242.816 6.22608 242.64 6.40208 242.31 6.40208L240.308 6.35808ZM247.612 13.2001C247.612 13.5301 247.436 13.7061 247.106 13.7061H245.302C244.972 13.7061 244.796 13.5301 244.796 13.2001V9.50408H242.728C242.398 9.50408 242.222 9.32808 242.222 8.99808V7.72208C242.222 7.39208 242.398 7.21608 242.728 7.21608H244.796V4.02608C244.796 3.69608 244.972 3.52008 245.302 3.52008H247.106C247.436 3.52008 247.612 3.69608 247.612 4.02608V13.2001ZM264.982 9.98808C264.982 10.3181 264.806 10.4941 264.476 10.4941H262.672C262.342 10.4941 262.166 10.3181 262.166 9.98808V6.09408H259.504L259.46 6.75408C259.438 7.08408 259.284 7.26008 258.954 7.26008H253.454V8.49208L259.548 8.16208C259.57 8.16208 259.57 8.16208 259.592 8.16208C259.9 8.16208 260.054 8.33808 260.054 8.66808V9.94408C260.054 10.3181 259.9 10.4281 259.548 10.4501L251.144 10.8901C251.122 10.8901 251.122 10.8901 251.1 10.8901C250.792 10.8901 250.638 10.7141 250.638 10.3841V5.47808C250.638 5.14808 250.814 4.97208 251.144 4.97208H256.908L256.996 4.00408L251.144 3.85008C250.814 3.85008 250.638 3.67408 250.638 3.34408V2.06808C250.638 1.73808 250.814 1.56208 251.144 1.56208L259.328 1.78208C259.658 1.78208 259.834 1.93608 259.834 2.24408C259.834 2.26608 259.834 2.26608 259.834 2.28808L259.702 3.80608H262.166V2.26608C262.166 1.93608 262.342 1.76008 262.672 1.76008H264.476C264.806 1.76008 264.982 1.93608 264.982 2.26608V9.98808ZM255.258 18.0401C254.928 18.0401 254.774 17.8641 254.752 17.5341L254.488 12.2541C254.488 12.2321 254.488 12.2321 254.488 12.2101C254.488 11.9021 254.664 11.7481 254.994 11.7481H263.442C263.772 11.7481 263.948 11.9021 263.948 12.2101C263.948 12.2321 263.948 12.2321 263.948 12.2541L263.684 17.3141C263.662 17.6441 263.508 17.8201 263.178 17.8201L255.258 18.0401ZM257.458 15.8181L260.978 15.7081L261.066 13.8601H257.37L257.458 15.8181ZM275.938 2.50808C275.938 4.07008 274.618 5.45608 273.452 5.98408C273.386 6.00608 273.342 6.02808 273.276 6.02808C273.166 6.02808 273.078 5.98408 273.012 5.87408L272.506 5.12608C272.462 5.06008 272.44 4.99408 272.44 4.95008C272.44 4.84008 272.506 4.77408 272.638 4.70808C273.012 4.53208 273.65 4.00408 273.892 3.67408C273.21 3.58608 272.616 3.01408 272.616 2.22208C272.616 1.25408 273.342 0.638083 274.244 0.638083C275.366 0.638083 275.938 1.36408 275.938 2.50808ZM271.758 2.50808C271.758 4.07008 270.438 5.45608 269.272 5.98408C269.206 6.00608 269.162 6.02808 269.096 6.02808C268.986 6.02808 268.898 5.98408 268.832 5.87408L268.326 5.12608C268.282 5.06008 268.26 4.99408 268.26 4.95008C268.26 4.84008 268.326 4.77408 268.458 4.70808C268.832 4.53208 269.47 4.00408 269.712 3.67408C269.03 3.58608 268.436 3.01408 268.436 2.22208C268.436 1.25408 269.162 0.638083 270.064 0.638083C271.186 0.638083 271.758 1.36408 271.758 2.50808Z" fill="#00A5E8"/>
</svg>
