<svg width="40" height="40" viewBox="0 0 40 40" fill="none" xmlns="http://www.w3.org/2000/svg">
<mask id="mask0_452_426" style="mask-type:alpha" maskUnits="userSpaceOnUse" x="0" y="0" width="40" height="40">
<rect width="40" height="40" fill="#D9D9D9"/>
</mask>
<g mask="url(#mask0_452_426)">
<path d="M20.0416 33.4029C19.2083 33.9585 18.3171 34.3635 17.3679 34.6179C16.419 34.8726 15.4491 35 14.4583 35C13.4861 35 12.5232 34.8635 11.5696 34.5904C10.6157 34.3171 9.71748 33.9212 8.87498 33.4029C8.22692 33.7824 7.55331 34.0901 6.85415 34.3263C6.15498 34.5624 5.4397 34.7453 4.70831 34.875C4.33804 34.9306 4.01623 34.8288 3.7429 34.5696C3.46984 34.3101 3.33331 33.9907 3.33331 33.6112C3.33331 33.2129 3.4629 32.8703 3.72206 32.5833C3.98151 32.2964 4.31026 32.1158 4.70831 32.0417C5.27304 31.9214 5.81234 31.7501 6.32623 31.5279C6.84012 31.3057 7.3379 31.0418 7.81956 30.7362C8.12512 30.5324 8.47456 30.4258 8.8679 30.4167C9.26151 30.4075 9.61109 30.514 9.91665 30.7362C10.6019 31.1899 11.3287 31.544 12.0971 31.7987C12.8657 32.0532 13.6528 32.1804 14.4583 32.1804C15.2639 32.1804 16.0532 32.0601 16.8262 31.8196C17.5996 31.5788 18.3287 31.2315 19.0137 30.7779C19.3379 30.5557 19.6944 30.4515 20.0833 30.4654C20.4722 30.4793 20.8287 30.5974 21.1529 30.8196C21.8196 31.2732 22.5301 31.6135 23.2846 31.8404C24.0393 32.0671 24.8194 32.1804 25.625 32.1804C26.4953 32.1804 27.3332 32.0207 28.1387 31.7013C28.9443 31.3818 29.7036 30.986 30.4166 30.5138C30.6666 30.3565 30.9305 30.2756 31.2083 30.2708C31.4861 30.2661 31.75 30.3471 32 30.5138C32.5186 30.8565 33.0418 31.1621 33.5696 31.4304C34.0973 31.699 34.6621 31.9028 35.2637 32.0417C35.6621 32.1436 35.9954 32.3311 36.2637 32.6042C36.5323 32.8772 36.6666 33.2129 36.6666 33.6112C36.6666 34.0093 36.5232 34.3357 36.2362 34.5904C35.949 34.8449 35.6157 34.9397 35.2362 34.875C34.5323 34.7453 33.8401 34.5601 33.1596 34.3196C32.479 34.0788 31.8286 33.7732 31.2083 33.4029C30.3564 33.9029 29.456 34.294 28.5071 34.5763C27.5579 34.8588 26.5972 35 25.625 35C24.6528 35 23.6921 34.8588 22.7429 34.5763C21.794 34.294 20.8936 33.9029 20.0416 33.4029ZM3.33331 27.2221V24.1667C3.33331 21.5092 3.86345 19.0185 4.92373 16.6946C5.98373 14.3704 7.42123 12.3426 9.23623 10.6112C11.051 8.87958 13.1736 7.51153 15.6041 6.50708C18.0347 5.50236 20.6111 5 23.3333 5C23.8055 5 24.2893 5.01153 24.7846 5.03458C25.2801 5.05792 25.764 5.10194 26.2362 5.16667C26.699 5.23139 27.0393 5.4675 27.2571 5.875C27.4746 6.2825 27.4861 6.69917 27.2916 7.125C26.9953 7.74528 26.7707 8.34708 26.6179 8.93042C26.4651 9.51375 26.3887 10.1526 26.3887 10.8471C26.3887 12.449 26.9582 13.8657 28.0971 15.0971C29.236 16.3288 30.6064 16.9446 32.2083 16.9446H35.2779C35.676 16.9446 36.0069 17.0765 36.2708 17.3404C36.5347 17.6043 36.6666 17.9353 36.6666 18.3333C36.6666 18.7314 36.5347 19.0624 36.2708 19.3263C36.0069 19.5901 35.676 19.7221 35.2779 19.7221H32.2083C29.8103 19.7221 27.7779 18.8425 26.1112 17.0833C24.4446 15.3242 23.6112 13.2454 23.6112 10.8471C23.6112 10.4582 23.6529 10.0161 23.7362 9.52083C23.8196 9.02556 23.926 8.50472 24.0554 7.95833C21.7962 8.49528 19.9537 9.6643 18.5279 11.4654C17.1018 13.2662 16.3887 15.2778 16.3887 17.5C16.3887 18.5369 16.5671 19.5393 16.9237 20.5071C17.2801 21.4746 17.7871 22.4074 18.4446 23.3054L19.2083 22.7638C19.4583 22.5971 19.7222 22.5138 20 22.5138C20.2778 22.5138 20.5416 22.5971 20.7916 22.7638C21.4861 23.2268 22.2523 23.6157 23.0904 23.9304C23.9282 24.2454 24.773 24.4029 25.625 24.4029C26.4769 24.4029 27.3218 24.2408 28.1596 23.9167C28.9976 23.5925 29.7639 23.199 30.4583 22.7363C30.7083 22.5788 30.9607 22.4976 31.2154 22.4929C31.4698 22.4885 31.7221 22.5649 31.9721 22.7221L33.1946 23.4863C33.5371 23.6529 33.8773 23.8033 34.2154 23.9375C34.5532 24.0717 34.9073 24.1804 35.2779 24.2638C35.676 24.3657 36.0069 24.5532 36.2708 24.8263C36.5347 25.0996 36.6666 25.4353 36.6666 25.8333C36.6666 26.2314 36.5232 26.5578 36.2362 26.8125C35.949 27.0672 35.6157 27.1621 35.2362 27.0971C34.5418 26.9676 33.8543 26.7801 33.1737 26.5346C32.4932 26.2893 31.838 25.9861 31.2083 25.625C30.2825 26.1806 29.3658 26.5857 28.4583 26.8404C27.5508 27.0949 26.6064 27.2221 25.625 27.2221C24.6436 27.2221 23.6529 27.074 22.6529 26.7779C21.6529 26.4815 20.7825 26.0972 20.0416 25.625C19.1619 26.1714 18.2498 26.5672 17.3054 26.8125C16.361 27.0578 15.4119 27.1943 14.4583 27.2221C13.5416 27.2315 12.5972 27.0926 11.625 26.8054C10.6528 26.5185 9.73609 26.125 8.87498 25.625C8.05081 26.1064 7.14567 26.4838 6.15956 26.7571C5.17345 27.0301 4.23137 27.1851 3.33331 27.2221Z" fill="#0475F4"/>
</g>
</svg>
