<svg width="20" height="20" viewBox="0 0 20 20" fill="none" xmlns="http://www.w3.org/2000/svg">
<mask id="mask0_420_687" style="mask-type:alpha" maskUnits="userSpaceOnUse" x="0" y="0" width="20" height="20">
<rect width="20" height="20" fill="#D9D9D9"/>
</mask>
<g mask="url(#mask0_420_687)">
<path fill-rule="evenodd" clip-rule="evenodd" d="M6.84215 13.0524C6.84215 11.3084 8.25595 9.89456 9.99997 9.89456C11.744 9.89456 13.1578 11.3084 13.1578 13.0524C13.1578 13.995 12.7455 14.8412 12.0888 15.4208L7.91117 15.4208C7.25448 14.8412 6.84215 13.995 6.84215 13.0524ZM7.60797 16.9997C7.62333 17.0001 7.6387 17.0001 7.65404 16.9997L12.3459 16.9997C12.3612 17.0001 12.3766 17.0001 12.392 16.9997L17.1051 16.9997C17.5411 16.9997 17.8945 16.6462 17.8945 16.2102C17.8945 15.7742 17.5411 15.4208 17.1051 15.4208L14.1028 15.4208C14.5057 14.7242 14.7367 13.9152 14.7367 13.0524C14.7367 10.4364 12.616 8.31565 9.99997 8.31565C7.38394 8.31565 5.26324 10.4364 5.26324 13.0524C5.26324 13.9152 5.49421 14.7242 5.89711 15.4208L2.89487 15.4208C2.45886 15.4208 2.10541 15.7742 2.10541 16.2102C2.10541 16.6462 2.45886 16.9997 2.89487 16.9997L7.60797 16.9997ZM15.5823 7.47016C15.8906 7.77847 15.8906 8.27832 15.5823 8.58662L15.0241 9.14485C14.7158 9.45315 14.2159 9.45315 13.9076 9.14485C13.5993 8.83655 13.5993 8.3367 13.9076 8.02839L14.4659 7.47016C14.7742 7.16186 15.274 7.16186 15.5823 7.47016ZM3.68432 13.8418C4.12033 13.8418 4.47378 13.4884 4.47378 13.0524C4.47378 12.6164 4.12033 12.2629 3.68432 12.2629L2.89487 12.2629C2.45886 12.2629 2.10541 12.6164 2.10541 13.0524C2.10541 13.4884 2.45886 13.8418 2.89487 13.8418L3.68432 13.8418ZM17.8945 13.0524C17.8945 13.4884 17.5411 13.8418 17.1051 13.8418L16.3156 13.8418C15.8796 13.8418 15.5262 13.4884 15.5262 13.0524C15.5262 12.6164 15.8796 12.2629 16.3156 12.2629L17.1051 12.2629C17.5411 12.2629 17.8945 12.6164 17.8945 13.0524ZM4.9759 9.14487C5.2842 9.45317 5.78406 9.45317 6.09236 9.14487C6.40066 8.83657 6.40066 8.33671 6.09236 8.02841L5.53413 7.47018C5.22583 7.16188 4.72597 7.16188 4.41767 7.47018C4.10937 7.77848 4.10937 8.27834 4.41767 8.58664L4.9759 9.14487ZM10.7894 4.83082L10.7894 2.78946C10.7894 2.35345 10.436 2 9.99997 2C9.56397 2 9.21052 2.35345 9.21052 2.78946L9.21052 4.83082L8.97929 4.59959C8.67099 4.29129 8.17113 4.29129 7.86283 4.59959C7.55453 4.90789 7.55453 5.40775 7.86283 5.71605L9.44088 7.2941C9.44355 7.29678 9.44623 7.29944 9.44894 7.30207C9.5912 7.44075 9.78561 7.52619 9.99997 7.52619C10.1079 7.52619 10.2107 7.50455 10.3044 7.46536C10.3937 7.42808 10.4776 7.37365 10.551 7.30207C10.5537 7.29944 10.5564 7.29678 10.5591 7.2941L12.1371 5.71605C12.4454 5.40775 12.4454 4.90789 12.1371 4.59959C11.8288 4.29129 11.329 4.29129 11.0207 4.59959L10.7894 4.83082Z" fill="#1C1B1F"/>
</g>
</svg>
