<svg width="16" height="16" viewBox="0 0 16 16" fill="none" xmlns="http://www.w3.org/2000/svg">
<mask id="mask0_8853_2814" style="mask-type:alpha" maskUnits="userSpaceOnUse" x="0" y="0" width="16" height="16">
<rect width="16" height="16" fill="black"/>
</mask>
<g mask="url(#mask0_8853_2814)">
<path d="M9.06556 7.99902L6.46556 5.39902C6.34334 5.27679 6.28223 5.12124 6.28223 4.93235C6.28223 4.74346 6.34334 4.5879 6.46556 4.46568C6.58778 4.34346 6.74334 4.28235 6.93223 4.28235C7.12112 4.28235 7.27667 4.34346 7.39889 4.46568L10.4656 7.53235C10.5322 7.59902 10.5794 7.67124 10.6072 7.74902C10.635 7.82679 10.6489 7.91013 10.6489 7.99902C10.6489 8.0879 10.635 8.17124 10.6072 8.24902C10.5794 8.32679 10.5322 8.39902 10.4656 8.46568L7.39889 11.5323C7.27667 11.6546 7.12112 11.7157 6.93223 11.7157C6.74334 11.7157 6.58778 11.6546 6.46556 11.5323C6.34334 11.4101 6.28223 11.2546 6.28223 11.0657C6.28223 10.8768 6.34334 10.7212 6.46556 10.599L9.06556 7.99902Z" fill="black"/>
</g>
</svg>
