<svg width="60" height="60" viewBox="0 0 60 60" fill="none" xmlns="http://www.w3.org/2000/svg">
<g filter="url(#filter0_d_8007_2188)">
<rect x="2.5" y="1.5" width="55" height="55" rx="27.5" stroke="#1E222F"/>
</g>
<path d="M33.5 22.0127C33.6923 22.0076 33.8655 22.0813 34.0186 22.2344L40.3584 28.5742C40.451 28.6669 40.5161 28.7644 40.5537 28.8662C40.5916 28.9685 40.6104 29.0792 40.6104 29.1982C40.6104 29.3173 40.5916 29.428 40.5537 29.5303C40.5161 29.6321 40.451 29.7296 40.3584 29.8223L34.0186 36.1621C33.8825 36.2981 33.7139 36.3679 33.5127 36.3711C33.3116 36.3742 33.1343 36.3048 32.9814 36.1621C32.8288 36.0091 32.7529 35.8341 32.7529 35.6367C32.7529 35.439 32.8286 35.2634 32.9814 35.1104L38.1357 29.957L38.1572 29.9355H19.75C19.5403 29.9355 19.3656 29.8648 19.2246 29.7236C19.0834 29.5826 19.0127 29.4079 19.0127 29.1982C19.0127 28.9886 19.0834 28.8139 19.2246 28.6729C19.3656 28.5317 19.5403 28.4609 19.75 28.4609H38.1572L32.9668 23.2705C32.8204 23.1241 32.7482 22.9526 32.75 22.7568C32.7515 22.61 32.7954 22.4753 32.8818 22.3525L32.9814 22.2344C33.1345 22.0915 33.3073 22.0178 33.5 22.0127Z" fill="#1E222F" stroke="#1E222F" stroke-width="0.025"/>
<defs>
<filter id="filter0_d_8007_2188" x="0" y="0" width="60" height="60" filterUnits="userSpaceOnUse" color-interpolation-filters="sRGB">
<feFlood flood-opacity="0" result="BackgroundImageFix"/>
<feColorMatrix in="SourceAlpha" type="matrix" values="0 0 0 0 0 0 0 0 0 0 0 0 0 0 0 0 0 0 127 0" result="hardAlpha"/>
<feOffset dy="1"/>
<feGaussianBlur stdDeviation="1"/>
<feColorMatrix type="matrix" values="0 0 0 0 0.184314 0 0 0 0 0.2 0 0 0 0 0.34902 0 0 0 0.05 0"/>
<feBlend mode="normal" in2="BackgroundImageFix" result="effect1_dropShadow_8007_2188"/>
<feBlend mode="normal" in="SourceGraphic" in2="effect1_dropShadow_8007_2188" result="shape"/>
</filter>
</defs>
</svg>
